# xmcd
#
# Track frame offsets: 
#        150
#        19844
#        36885
#        53524
#        71724
#        88168
#        106777
#        124015
#        141082
#        158589
#        175476
#        191827
#        209564
#
# Disc length: 3033 seconds
#
# Revision: 6
# Processed by: cddbd v1.5.2PL0 Copyright (c) Steve Scherf et al.
# Submitted via: ExactAudioCopy v0.99pb5
#
DISCID=b60bd70d
DTITLE=Shayne Ward - Breathless
DYEAR=2007
DGENRE=Pop
TTITLE0=No U Hang Up
TTITLE1=Breathless
TTITLE2=If That's OK With You
TTITLE3=Damaged
TTITLE4=Stand By Your Side
TTITLE5=Until You
TTITLE6=Some Tears Never Dry
TTITLE7=Melt The Snow
TTITLE8=Tangled Up
TTITLE9=Just Be Good To Me
TTITLE10=U Got Me So
TTITLE11=You Make Me Wish
TTITLE12=Tell Him
EXTD=YEAR: 2007
EXTT0=
EXTT1=
EXTT2=
EXTT3=
EXTT4=
EXTT5=
EXTT6=
EXTT7=
EXTT8=
EXTT9=
EXTT10=
EXTT11=
EXTT12=
PLAYORDER=
